# Blender 4.1.1
# www.blender.org
mtllib leaf.mtl
o BushObj
v 0.000068 -0.019483 -0.005110
v 0.125405 0.226440 -0.107089
v -0.125268 0.226440 -0.107089
v 0.000068 0.229334 -0.346174
v -0.085296 0.240062 -0.168813
v 0.085432 0.240062 -0.168813
v -0.075751 0.148733 -0.056276
v 0.075888 0.148733 -0.056276
v -0.000058 0.198766 -0.217757
v -0.000082 0.183258 -0.149147
v -0.000040 0.105217 -0.061576
v -0.000068 0.154546 -0.104877
v -0.108925 0.200792 -0.090318
v 0.106704 0.197092 -0.087899
v 0.006195 0.105217 -0.061576
v 0.011396 -0.000309 -0.011518
v -0.033199 0.102699 -0.070973
v -0.011322 0.129526 -0.088516
v 0.012330 0.128158 -0.087621
v 0.047355 0.126609 -0.050348
v 0.062882 0.126718 -0.048918
v -0.064917 0.130396 -0.050147
v -0.000054 0.131672 -0.077648
v 0.003055 0.131492 -0.077530
v 0.092485 0.174778 -0.073307
v -0.090762 0.172290 -0.071680
v 0.009155 -0.015609 -0.033582
v -0.130574 0.092642 -0.062827
v -0.007142 0.136677 0.056943
v -0.182582 0.095968 0.121132
v -0.058594 0.133593 0.069138
v -0.142661 0.103602 -0.012435
v 0.007076 0.079479 0.011335
v -0.067591 0.052841 -0.061117
v -0.116005 0.086282 0.056213
v -0.080611 0.081660 0.021461
v -0.024568 0.036102 -0.019591
v -0.054286 0.065941 0.000095
v -0.002449 0.117798 0.041889
v -0.106787 0.077610 -0.062181
v -0.027638 0.035006 -0.022569
v -0.003045 -0.005102 -0.036763
v -0.012217 0.039401 0.001280
v -0.036315 0.052301 -0.001595
v -0.047282 0.047293 -0.013282
v -0.046594 0.043307 -0.049297
v -0.053582 0.040777 -0.057465
v 0.008076 0.065624 0.004025
v -0.037121 0.052722 -0.012749
v -0.038562 0.052064 -0.014285
v -0.088701 0.066181 -0.061690
v 0.002766 0.096818 0.025161
v 0.024777 -0.017112 -0.048283
v -0.017363 0.187420 0.159002
v 0.149920 0.235465 -0.071455
v 0.271945 0.228249 0.196556
v 0.176195 0.242848 0.021557
v 0.075853 0.214029 0.159793
v 0.082954 0.140621 -0.080066
v -0.018240 0.111557 0.059344
v 0.172028 0.190120 0.115918
v 0.118498 0.170564 0.072955
v 0.044624 0.077118 -0.011822
v 0.076381 0.135983 0.023461
v 0.127817 0.208309 -0.081283
v -0.017694 0.162622 0.114875
v 0.040464 0.075923 -0.006091
v 0.019924 0.002892 -0.031281
v 0.075858 0.081252 -0.036161
v 0.072970 0.108663 -0.000960
v 0.056589 0.102518 0.020016
v -0.000967 0.091537 0.026515
v -0.012668 0.088589 0.039822
v 0.073136 0.117337 -0.076407
v 0.055048 0.108205 0.002204
v 0.052895 0.107397 0.004961
v -0.017946 0.139060 0.089252
v 0.103255 0.171250 -0.080617
v 0.018259 -0.003527 -0.033744
v 0.122418 0.049851 -0.089433
v 0.009948 0.099679 -0.109596
v 0.069313 0.039360 -0.204486
v 0.035645 0.083618 -0.138447
v 0.103108 0.053730 -0.126352
v 0.012128 0.069255 -0.069661
v 0.080164 0.039113 -0.057464
v 0.062081 0.046221 -0.147539
v 0.058391 0.050187 -0.117213
v 0.035074 0.035501 -0.052878
v 0.047939 0.048820 -0.087237
v 0.008815 0.092520 -0.095672
v 0.104739 0.048474 -0.076669
v 0.037871 0.034262 -0.052376
v 0.027526 0.001354 -0.038550
v 0.021550 0.038802 -0.066653
v 0.037328 0.043044 -0.076922
v 0.047636 0.037905 -0.074407
v 0.062552 0.036317 -0.053852
v 0.069524 0.033509 -0.051946
v 0.012987 0.060280 -0.063322
v 0.041550 0.043933 -0.066616
v 0.042904 0.043257 -0.066285
v 0.093400 0.044154 -0.067808
v 0.010629 0.079783 -0.081431
vn 0.0016 0.9011 0.4336
vn -0.4297 0.7264 0.5363
vn -0.4662 0.8169 0.3397
vn 0.0009 0.9738 0.2273
vn -0.4090 0.6836 0.6045
vn 0.0038 0.6903 0.7235
vn -0.0001 0.9728 0.2316
vn -0.0885 0.3445 0.9346
vn -0.3489 0.6347 0.6895
vn -0.3355 0.5289 0.7796
vn 0.4673 0.8161 0.3401
vn 0.4306 0.7261 0.5361
vn 0.4448 0.6030 0.6622
vn 0.7495 0.6126 0.2510
vn 0.3168 0.5302 0.7865
vn -0.1338 0.5347 0.8344
vn 0.7376 0.5373 0.4088
vn 0.0240 0.4707 0.8820
vn -0.1653 0.4911 0.8553
vn 0.4114 0.6832 0.6033
vn 0.0507 0.6839 0.7278
vn -0.3966 0.6453 0.6529
vn -0.3351 0.6064 0.7211
vn 0.3768 0.6171 0.6908
vn -0.1858 0.5205 0.8334
vn -0.2171 0.4058 0.8878
vn 0.0506 0.9185 -0.3921
vn 0.4652 0.8702 -0.1624
vn 0.3353 0.9421 -0.0009
vn -0.1061 0.9634 -0.2462
vn 0.5078 0.8322 -0.2229
vn 0.2985 0.7507 -0.5893
vn -0.1023 0.9632 -0.2486
vn 0.6021 0.4550 -0.6561
vn 0.5357 0.7806 -0.3220
vn 0.6207 0.6746 -0.3996
vn -0.3133 0.7098 -0.6309
vn -0.1329 0.6564 -0.7426
vn -0.0260 0.5500 -0.8348
vn -0.5152 0.4335 -0.7394
vn 0.1209 0.5530 -0.8243
vn 0.5094 0.6489 -0.5652
vn -0.4030 0.3981 -0.8241
vn 0.4055 0.5897 -0.6985
vn 0.5534 0.6209 -0.5552
vn -0.0634 0.6282 -0.7755
vn 0.2705 0.7335 -0.6236
vn 0.5416 0.7982 -0.2637
vn 0.5547 0.7538 -0.3521
vn 0.0367 0.5839 -0.8110
vn 0.5463 0.6538 -0.5236
vn 0.6503 0.5674 -0.5052
vn -0.4310 0.8908 -0.1443
vn -0.2104 0.8418 -0.4970
vn -0.1246 0.8607 -0.4936
vn -0.3246 0.9451 -0.0374
vn -0.2565 0.8166 -0.5171
vn -0.6687 0.6703 -0.3219
vn -0.3273 0.9440 -0.0409
vn -0.7501 0.2859 -0.5963
vn -0.4434 0.6424 -0.6251
vn -0.5183 0.5171 -0.6811
vn -0.6641 0.7050 0.2490
vn -0.7670 0.6310 0.1167
vn -0.8766 0.4808 0.0214
vn -0.7246 0.4637 0.5099
vn -0.8805 0.4576 -0.1241
vn -0.6695 0.4998 -0.5495
vn -0.8159 0.4020 0.4156
vn -0.7862 0.4508 -0.4228
vn -0.6612 0.4650 -0.5888
vn -0.7926 0.6061 0.0666
vn -0.7127 0.6222 -0.3240
vn -0.3878 0.6630 -0.6403
vn -0.4725 0.6104 -0.6357
vn -0.8621 0.5043 -0.0485
vn -0.6323 0.5010 -0.5910
vn -0.6157 0.3986 -0.6797
vn 0.3764 0.9217 0.0939
vn -0.0362 0.9948 0.0954
vn -0.0768 0.9969 0.0175
vn 0.4143 0.9081 -0.0612
vn -0.0326 0.9880 0.1511
vn 0.3154 0.8414 0.4389
vn 0.4129 0.9090 -0.0571
vn 0.0123 0.5823 0.8129
vn -0.0589 0.9078 0.4153
vn -0.0766 0.7933 0.6039
vn 0.7629 0.6242 0.1687
vn 0.6977 0.6306 0.3398
vn 0.6442 0.5545 0.5268
vn 0.9336 0.3071 0.1847
vn 0.4479 0.6256 0.6387
vn 0.0258 0.8349 0.5498
vn 0.8898 0.3016 0.3425
vn 0.2039 0.4365 0.8763
vn -0.1467 0.7165 0.6820
vn 0.6664 0.6338 0.3927
vn 0.3745 0.8045 0.4610
vn -0.0965 0.9241 0.3699
vn -0.1274 0.9273 0.3519
vn 0.6505 0.5894 0.4790
vn 0.1304 0.6303 0.7653
vn 0.2619 0.3050 0.9156
vt 0.499678 0.500322
vt 0.809581 0.543935
vt 0.840518 0.694908
vt 0.652449 0.652508
vt 0.671467 0.298465
vt 0.433973 0.434556
vt 0.795104 0.813451
vt 0.385170 0.115985
vt 0.464925 0.140001
vt 0.403787 0.201139
vt 0.680745 0.859564
vt 0.470693 0.799815
vt 0.167719 0.556973
vt 0.140001 0.464925
vt 0.231180 0.373746
vt 0.346252 0.395067
vt 0.119997 0.398493
vt 0.000000 0.000000
vt 0.302231 0.302695
vt 0.306725 0.697642
vt 0.428612 0.410245
vt 0.510056 0.165764
vt 0.368741 0.369265
vt 0.374945 0.362147
vt 0.315590 0.289336
vt 0.069460 0.020916
vt 0.415588 0.439012
vt 0.393456 0.340909
vt 0.566697 0.170647
vt 0.180414 0.529629
vt 0.768565 0.231435
vt 0.835635 0.469322
vt 0.653889 0.196903
vt 0.978698 0.977513
vt 0.433022 0.427508
vt 0.397542 0.239610
vt 0.430154 0.410123
vt 0.469808 0.835150
vt 0.231435 0.768565
vt 0.175157 0.441487
vt 0.379617 0.419644
vt 0.381716 0.419001
vt 0.201256 0.668345
s 1
usemtl Material
f 10/1/1 2/2/2 6/3/3
f 6/3/3 9/4/4 10/1/1
f 14/5/5 2/2/2 10/1/1
f 10/1/1 12/6/6 14/5/5
f 6/3/3 4/7/7 9/4/4
f 21/8/8 8/9/9 20/10/10
f 4/7/7 5/11/11 9/4/4
f 5/11/11 3/12/12 10/1/1
f 10/1/1 9/4/4 5/11/11
f 26/13/13 7/14/14 17/15/15
f 17/15/15 18/16/16 26/13/13
f 17/15/15 22/17/17 1/18/18
f 1/18/18 11/19/19 17/15/15
f 10/1/1 3/12/12 13/20/20
f 13/20/20 12/6/6 10/1/1
f 12/6/6 19/21/21 25/22/22
f 25/22/22 14/5/5 12/6/6
f 12/6/6 23/23/23 24/24/24
f 15/25/25 11/19/19 1/18/18
f 1/18/18 16/26/26 15/25/25
f 23/23/23 12/6/6 18/27/16
f 12/6/6 24/24/24 19/21/21
f 20/10/10 15/25/25 16/26/26
f 16/26/26 21/8/8 20/10/10
f 17/15/15 7/14/14 22/17/17
f 11/19/19 23/23/23 18/16/16
f 18/16/16 17/15/15 11/19/19
f 15/25/25 24/24/24 23/23/23
f 23/23/23 11/19/19 15/25/25
f 15/25/25 20/10/10 19/28/21
f 19/21/21 24/24/24 15/25/25
f 20/10/10 8/9/9 25/29/22
f 25/29/22 19/28/21 20/10/10
f 12/6/6 13/20/20 26/30/13
f 26/30/13 18/27/16 12/6/6
f 36/1/27 28/31/28 32/32/29
f 32/32/29 35/4/30 36/1/27
f 40/33/31 28/31/28 36/1/27
f 36/1/27 38/6/32 40/33/31
f 32/32/29 30/34/33 35/4/30
f 47/35/34 34/36/35 46/37/36
f 30/34/33 31/38/37 35/4/30
f 31/38/37 29/39/38 36/1/27
f 36/1/27 35/4/30 31/38/37
f 52/30/39 33/40/40 43/41/41
f 43/15/41 44/16/42 52/13/39
f 43/41/41 48/42/43 27/18/44
f 27/18/44 37/19/45 43/41/41
f 36/1/27 29/39/38 39/43/46
f 39/43/46 38/6/32 36/1/27
f 38/6/32 45/28/47 51/29/48
f 51/29/48 40/33/31 38/6/32
f 38/6/32 49/23/49 50/24/50
f 41/25/51 37/19/45 27/18/44
f 27/18/44 42/26/52 41/25/51
f 49/23/49 38/6/32 44/16/42
f 38/6/32 50/24/50 45/28/47
f 46/37/36 41/25/51 42/26/52
f 42/26/52 47/35/34 46/37/36
f 43/41/41 33/40/40 48/42/43
f 37/19/45 49/23/49 44/16/42
f 44/16/42 43/15/41 37/19/45
f 41/25/51 50/24/50 49/23/49
f 49/23/49 37/19/45 41/25/51
f 41/25/51 46/37/36 45/21/47
f 45/28/47 50/24/50 41/25/51
f 46/37/36 34/36/35 51/22/48
f 51/22/48 45/21/47 46/37/36
f 38/6/32 39/43/46 52/13/39
f 52/13/39 44/16/42 38/6/32
f 62/1/53 54/2/54 58/3/55
f 58/3/55 61/4/56 62/1/53
f 66/5/57 54/2/54 62/1/53
f 62/1/53 64/6/58 66/5/57
f 58/3/55 56/7/59 61/4/56
f 73/35/60 60/36/61 72/37/62
f 56/7/59 57/11/63 61/4/56
f 57/11/63 55/12/64 62/1/53
f 62/1/53 61/4/56 57/11/63
f 78/30/65 59/40/66 69/41/67
f 69/41/67 70/27/68 78/30/65
f 69/41/67 74/42/69 53/18/70
f 53/18/70 63/19/71 69/41/67
f 62/1/53 55/12/64 65/20/72
f 65/20/72 64/6/58 62/1/53
f 64/6/58 71/21/73 77/22/74
f 77/22/74 66/5/57 64/6/58
f 64/6/58 75/23/75 76/24/76
f 67/25/77 63/19/71 53/18/70
f 53/18/70 68/26/78 67/25/77
f 75/23/75 64/6/58 70/27/68
f 64/6/58 76/24/76 71/28/73
f 72/37/62 67/25/77 68/26/78
f 68/26/78 73/35/60 72/37/62
f 69/41/67 59/40/66 74/42/69
f 63/19/71 75/23/75 70/27/68
f 70/27/68 69/41/67 63/19/71
f 67/25/77 76/24/76 75/23/75
f 75/23/75 63/19/71 67/25/77
f 67/25/77 72/37/62 71/21/73
f 71/28/73 76/24/76 67/25/77
f 72/37/62 60/36/61 77/22/74
f 77/22/74 71/21/73 72/37/62
f 64/6/58 65/20/72 78/30/65
f 78/30/65 70/27/68 64/6/58
f 88/1/79 80/2/80 84/3/81
f 84/3/81 87/4/82 88/1/79
f 92/5/83 80/2/80 88/1/79
f 88/1/79 90/6/84 92/5/83
f 84/3/81 82/7/85 87/4/82
f 99/35/86 86/36/87 98/37/88
f 82/7/85 83/11/89 87/4/82
f 83/11/89 81/12/90 88/1/79
f 88/1/79 87/4/82 83/11/89
f 104/13/91 85/14/92 95/15/93
f 95/15/93 96/16/94 104/13/91
f 95/15/93 100/17/95 79/18/96
f 79/18/96 89/19/97 95/41/93
f 88/1/79 81/12/90 91/20/98
f 91/20/98 90/6/84 88/1/79
f 90/6/84 97/21/99 103/22/100
f 103/22/100 92/5/83 90/6/84
f 90/6/84 101/23/101 102/24/102
f 93/25/103 89/19/97 79/18/96
f 79/18/96 94/26/104 93/25/103
f 101/23/101 90/6/84 96/16/94
f 90/6/84 102/24/102 97/28/99
f 98/37/88 93/25/103 94/26/104
f 94/26/104 99/35/86 98/37/88
f 95/15/93 85/14/92 100/17/95
f 89/19/97 101/23/101 96/16/94
f 96/27/94 95/41/93 89/19/97
f 93/25/103 102/24/102 101/23/101
f 101/23/101 89/19/97 93/25/103
f 93/25/103 98/37/88 97/21/99
f 97/28/99 102/24/102 93/25/103
f 98/37/88 86/36/87 103/22/100
f 103/22/100 97/21/99 98/37/88
f 90/6/84 91/43/98 104/13/91
f 104/13/91 96/16/94 90/6/84
